<svg width="60" height="60" viewBox="0 0 60 60" fill="none" xmlns="http://www.w3.org/2000/svg">
    <path d="M35.5034 33.1068H34.3379L33.9248 32.7084C35.3706 31.0265 36.2411 28.843 36.2411 26.4677C36.2411 21.1712 31.9478 16.8779 26.6513 16.8779C21.3548 16.8779 17.0615 21.1712 17.0615 26.4677C17.0615 31.7642 21.3548 36.0575 26.6513 36.0575C29.0266 36.0575 31.2101 35.187 32.892 33.7412L33.2904 34.1543V35.3198L40.6671 42.6818L42.8654 40.4835L35.5034 33.1068ZM26.6513 33.1068C22.9777 33.1068 20.0122 30.1413 20.0122 26.4677C20.0122 22.7941 22.9777 19.8286 26.6513 19.8286C30.3249 19.8286 33.2904 22.7941 33.2904 26.4677C33.2904 30.1413 30.3249 33.1068 26.6513 33.1068Z" fill="white"/>
    <circle cx="29.963" cy="29.7799" r="28.796" stroke="white"/>
</svg>
